<?xml version="1.0" encoding="UTF-8" standalone="no"?>
<svg
   height="1024"
   width="1024"
   version="1.1"
   id="svg4"
   sodipodi:docname="icon.svg"
   inkscape:version="1.3.2 (091e20e, 2023-11-25, custom)"
   xml:space="preserve"
   inkscape:export-filename="icon.png"
   inkscape:export-xdpi="48"
   inkscape:export-ydpi="48"
   xmlns:inkscape="http://www.inkscape.org/namespaces/inkscape"
   xmlns:sodipodi="http://sodipodi.sourceforge.net/DTD/sodipodi-0.dtd"
   xmlns="http://www.w3.org/2000/svg"
   xmlns:svg="http://www.w3.org/2000/svg"><defs
     id="defs4"><mask
       id="c"><path
         d="m-1200-1200h2400v2400h-2400z"
         fill="#fff"
         id="path1-5" /><circle
         r="925"
         id="circle1" /><path
         d="m-306-861 36-185h540l36 185"
         id="path2-1" /><path
         transform="rotate(120)"
         d="m-306-861 36-185h540l36 185"
         id="path3" /><path
         transform="rotate(240)"
         d="m-306-861 36-185h540l36 185"
         id="path4" /></mask></defs><sodipodi:namedview
     id="namedview4"
     pagecolor="#ffffff"
     bordercolor="#666666"
     borderopacity="1.0"
     inkscape:showpageshadow="2"
     inkscape:pageopacity="0.0"
     inkscape:pagecheckerboard="0"
     inkscape:deskcolor="#d1d1d1"
     inkscape:zoom="0.40576172"
     inkscape:cx="467.02286"
     inkscape:cy="489.20337"
     inkscape:window-width="1920"
     inkscape:window-height="1027"
     inkscape:window-x="-8"
     inkscape:window-y="-8"
     inkscape:window-maximized="1"
     inkscape:current-layer="svg4" /><rect
     style="fill:#000000;fill-rule:evenodd;stroke-width:33.333"
     id="rect4"
     width="1024"
     height="1024"
     x="0"
     y="0"
     ry="0.40000001"
     sodipodi:insensitive="true" /><g
     fill="#fff"
     id="g4"><path
       d="m417.61523 76.875c-42.39203 9.424151-84.32671 22.54494-123.64257 42.33398.89912 34.71618 3.14362 67.97967 7.69336 101.76758-15.26846 9.78214-31.31507 18.17757-45.57618 29.62891-14.49005 11.14747-29.2896 21.81231-42.41015 34.84961-26.21196-17.33728-53.95467-33.6299-82.53516-48.01172C100.33705 270.59856 71.53124 306.38342 48 346.42773c18.493057 29.02877 38.32949 58.20569 56.69922 80.95899v197.7832 25.1211 22.86132c.44956.00417.89835.02088 1.34375.0625l150.66992 14.52735c7.89231.76176 14.07749 7.11448 14.62695 15.02343l4.64649 66.50977 131.42969 9.37891 9.05468-61.38672c1.17386-7.95891 8.00029-13.85742 16.05078-13.85742h158.96094c8.04633.0 14.87302 5.89851 16.04688 13.85742l9.05468 61.38672 131.4336-9.37891 4.64258-66.50977c.55362-7.90895 6.73464-14.25751 14.62695-15.02343l150.61133-14.52735c.4454-.04162.89028-.05833 1.33984-.0625v-19.61132l.0625-.01954V427.38672c21.2165-26.70928 41.30684-56.1715 56.69922-80.95899-23.52291-40.04431-52.34486-75.82917-83.15234-108.98437-28.57217 14.38182-56.32515 30.67444-82.53711 48.01172-13.11639-13.0373-27.88953-23.70214-42.40039-34.84961-14.25695-11.45134-30.32318-19.84677-45.5625-29.62891 4.53724-33.78791 6.7803-67.0514 7.68359-101.76758-39.32002-19.78904-81.24927-32.909829-123.66211-42.33398-16.9335 28.45977-32.41939 59.27922-45.90625 89.4082-15.99275-2.67239-32.05995-3.66203-48.14844-3.85351v-.02539c-.11239.0-.21676.02539-.3125.02539-.0999.0-.20478-.02539-.30468-.02539v.02539c-16.11763.19148-32.17106 1.18112-48.16797 3.85351-13.47854-30.12898-28.95559-60.94843-45.91407-89.4082zM298.41602 436.39844c50.15113.0 90.79882 40.61746 90.79882 90.75195.0 50.16779-40.64769 90.80859-90.79882 90.80859-50.12617.0-90.78711-40.6408-90.78711-90.80859.0-50.13449 40.66094-90.75195 90.78711-90.75195zm427.17773.0c50.122.0 90.7793 40.61746 90.7793 90.75195.0 50.16779-40.6573 90.80859-90.7793 90.80859-50.15946.0-90.80664-40.6408-90.80664-90.80859.0-50.13449 40.64718-90.75195 90.80664-90.75195zm-213.59961 53.10937c16.14261.0 29.25391 11.90816 29.25391 26.56055v83.58984c0 14.66488-13.1113 26.5625-29.25391 26.5625-16.1426.0-29.22656-11.89762-29.22656-26.5625v-83.58984c0-14.65239 13.08396-26.56055 29.22656-26.56055z"
       stroke-width="4.16261"
       id="path1" /><path
       d="m0 0-1.121-16.063c-.135-1.936-1.675-3.477-3.611-3.616l-38.555-2.751c-.094-.007-.188-.01-.281-.01-1.916.0-3.569 1.406-3.852 3.33l-2.211 14.994H-81.09l-2.211-14.994c-.297-2.018-2.101-3.469-4.133-3.32l-38.555 2.751c-1.936.139-3.476 1.68-3.611 3.616L-130.721.0l-32.547 3.138c.015-3.498.06-7.33.06-8.093.0-34.374 43.605-50.896 97.781-51.086h.066.067c54.176.19 97.766 16.712 97.766 51.086.0.777.047 4.593.063 8.093z"
       transform="matrix(4.162611 0 0 -4.162611 784.07144 718.723121)"
       id="path2" /><rect
       style="fill:#ffffff;fill-rule:evenodd;stroke-width:33.333"
       id="rect5"
       width="200"
       height="200"
       x="202.08905"
       y="432.51987"
       ry="0.40000001" /><rect
       style="fill:#ffffff;fill-rule:evenodd;stroke-width:33.333"
       id="rect6"
       width="200"
       height="200"
       x="628.44763"
       y="434.98438"
       ry="0.40000001" /><rect
       style="fill:#ffffff;fill-rule:evenodd;stroke-width:33.333"
       id="rect7"
       width="80"
       height="160"
       x="471.95184"
       y="478.11313"
       ry="0.40000001" /><path
       style="fill:#ffffff;stroke:none;stroke-width:1px;stroke-linecap:butt;stroke-linejoin:miter;stroke-opacity:1"
       d="m 104.58724,707.9278 0.15404,-41.43442 h 814.43287 l 0.23861,40.66426 -123.11854,123.11854 H 251.81511 Z"
       id="path7" /></g><g
     id="g1"
     transform="matrix(0.29335413,0,0,0.29335413,512,584.48647)"><path
       transform="translate(-1200,-1200)"
       d="m 927.78,150.59 c -10.264,38.955 -15.829,79.394 -24.275,118.91 -4.2781,17.442 -5.4821,36.749 -11.511,53.168 -38.755,15.951 -78.137,30.945 -115.19,50.823 -107.07,54.532 -202.78,130.46 -281.02,221.58 -151.59,174.21 -233.09,407.17 -223.54,637.89 1.0052,46.21 6.8068,92.133 14.082,137.69 -4.1459,9.1055 -15.801,14.567 -22.705,22.287 -34.454,30.71 -70.051,60.831 -104.2,91.397 -2.5875,12.104 8.5978,22.665 12.684,33.414 83.415,147.46 168.59,293.93 253.66,440.42 10.668,5.265 22.963,-6.0948 34.228,-7.7228 44.347,-15.166 88.468,-31.066 133.17,-45.133 34.669,24.505 66.842,52.618 103.12,74.938 140.18,90.919 305.59,142.04 472.41,148.19 73.237,0.3583 146.85,-3.1371 218.59,-18.87 151.1,-30.632 293.55,-100.91 411.84,-199.51 9.0235,-10.196 21.268,1.6055 31.75,2.9375 46.578,14.987 92.791,32.926 139.49,47.033 10.067,-6.3142 13.659,-20.981 20.904,-30.76 80.526,-140.18 162.7,-279.43 241.54,-420.56 4.3146,-9.0939 15.45,-23.447 1.7002,-30.376 -40.148,-35.476 -81.491,-69.918 -120.93,-106.01 5.3274,-37.124 11.642,-74.36 13.019,-112 6.7315,-117.07 -6.2859,-235.61 -43.274,-347.12 -42.732,-131.64 -115.22,-253.9 -211.23,-353.65 -63.715,-65.577 -135.23,-124.08 -215.65,-168.04 -47.141,-27.087 -97.151,-48.71 -147.71,-68.398 -5.8694,-8.1464 -4.6461,-20.871 -7.7944,-30.739 -9.2645,-46.504 -17.637,-93.187 -27.522,-139.56 -8.4536,-8.3279 -23.673,-1.6914 -34.856,-3.8125 h -507.13 l -1.8341,0.79752 z M 1199,556.04 c 43.489,-0.50918 86.177,0.56638 128.7,10.736 108.57,21.663 212.12,72.394 295.62,145.67 46.92,43.386 91.379,89.855 124.25,145.02 76.719,121.53 110.26,268.82 94.538,411.65 -15.752,151.09 -86.628,295.12 -197.61,399.05 -108.53,104.58 -255.68,168.73 -405.84,175.88 -64.29,2.5372 -129.31,0.058 -191.73,-16.557 -143.11,-34.398 -273.86,-120.51 -362.47,-238.66 -94.997,-123.76 -141.21,-284.47 -128.25,-440.28 12.866,-173.03 99.648,-338.54 234.39,-448.05 96.795,-79.419 217.54,-130.38 342.17,-142.91 21.928,-1.4964 44.085,-1.4766 66.234,-1.543 z"
       fill="#ffffff"
       stroke="#000000"
       stroke-width="15"
       id="path5" /><path
       id="b"
       d="m 40,-345 v -455 h 93.5 L 0,-1059 -133.5,-800 H -40 v 455" /><path
       d="m 282.98,206.25 394.04,227.5 -46.75,80.973 291.05,13.886 -157.55,-245.11 -46.75,80.973 -394.04,-227.5"
       id="path6" /><path
       d="M -325.96,136.97 -720,364.47 -766.75,283.497 -924.3,528.607 -633.25,514.721 -680,433.748 -285.96,206.248"
       id="path7-6" /><path
       transform="translate(-1200,-1200)"
       d="m 1185.5,669.1 c -83.78,-2.8345 -165.96,23.512 -239.52,61.883 -168.38,92.328 -285.01,279.09 -278.23,473.05 -4.1774,204.02 128.21,397.52 311.77,481.58 73.571,33.377 155.34,52.485 236.34,45.288 58.668,-0.5447 117.1,-9.3351 171.6,-31.744 211.23,-76.611 359.43,-299.27 344.83,-524.12 -6.5491,-214.04 -158.4,-412.82 -360.93,-480.28 -59.669,-22.986 -122.51,-27.453 -185.86,-25.662 z"
       fill="#ffffff"
       stroke="#ffffff"
       id="path8" /><g
       mask="url(#c)"
       id="g11"
       style="display:inline"><path
         d="M 984,0 A 984,984 0 0 1 0,984 984,984 0 0 1 -984,0 984,984 0 0 1 0,-984 984,984 0 0 1 984,0 Z"
         id="path9" /><path
         id="a"
         d="m -359,-913 36,-185 h 646 l 36,185" /><path
         d="m 970.18,145.6 142.21,123.68 -323,559.45 -178.21,-61.323"
         id="path10" /><path
         d="m -611.18,767.4 -178.21,61.323 -323,-559.45 142.21,-123.68"
         id="path11" /></g><g
       fill="none"
       stroke="#000000"
       id="g14"><path
         d="M 590.5,0 A 590.5,590.5 0 0 1 0,590.5 590.5,590.5 0 0 1 -590.5,0 590.5,590.5 0 0 1 0,-590.5 590.5,590.5 0 0 1 590.5,0 Z"
         stroke-width="119"
         id="path12" /><path
         d="M -352.21,204.5 0,-7.85 360,200 0,-7.85 V -440 m 0,0 360,207.85 V 200 L 0,407.85 -352.21,204.5 V -240 Z"
         stroke-width="15"
         id="path13" /><path
         d="m 80,40 v -360 l 200,115.47 v 358.34"
         stroke-width="15"
         id="path14" /></g><path
       transform="translate(-1.6234e-5,-1.6941e-5)"
       d="m 200,-80 c 7.3646,-7.3646 22.302,-4.3816 33.342,6.6584 11.04,11.04 14.023,25.977 6.6584,33.342 -7.3646,7.3646 -22.302,4.3816 -33.342,-6.6584 C 195.6184,-57.698 192.6354,-72.635 200,-80 Z"
       id="path15" /><path
       d="m -80,38.342 v -358.34 l -207.85,120 v 365.7"
       fill="none"
       stroke="#000000"
       stroke-width="15"
       id="path16" /><path
       transform="translate(-84.041,75.959)"
       d="m -120,-160 c 7.3646,7.3646 4.3816,22.302 -6.6584,33.342 -11.04,11.04 -25.977,14.023 -33.342,6.6584 -7.3646,-7.3646 -4.3816,-22.302 6.6584,-33.342 11.04,-11.04 25.977,-14.023 33.342,-6.6584 z"
       id="path17" /></g></svg>
